<svg xmlns="http://www.w3.org/2000/svg" width="506" height="446" viewBox="0 0 506 446" role="img" aria-label="A containing square in its chart and its sweep: the band between the dashed lines, beyond the two back edges. The highlighted quarter circle lies in the sweep">
<title>A containing square in its chart and its sweep: the band between the dashed lines, beyond the two back edges. The highlighted quarter circle lies in the sweep</title>
<defs><marker id="arrow" viewBox="0 0 10 10" refX="9" refY="5" markerUnits="userSpaceOnUse" markerWidth="11" markerHeight="11" orient="auto-start-reverse"><path d="M 0 0 L 10 5 L 0 10 z" fill="#1f2937"/></marker></defs>
<rect width="100%" height="100%" fill="#ffffff"/>
<polygon points="138.0,348.0 338.0,348.0 1178.0,-12.0 1178.0,-212.0 978.0,-212.0 138.0,148.0" fill="#ffedd5" stroke="none" stroke-width="1.5" fill-opacity="0.8"/>
<line x1="-30.8" y1="220.3" x2="520.7" y2="-16.0" stroke="#ea580c" stroke-width="1.2" stroke-dasharray="5 4"/>
<line x1="72.7" y1="461.7" x2="624.1" y2="225.4" stroke="#ea580c" stroke-width="1.2" stroke-dasharray="5 4"/>
<line x1="138.0" y1="422.0" x2="138.0" y2="28.0" stroke="#1f2937" stroke-width="1" stroke-dasharray="3 3"/>
<line x1="24.0" y1="348.0" x2="478.0" y2="348.0" stroke="#1f2937" stroke-width="1" stroke-dasharray="3 3"/>
<polygon points="138.0,348.0 338.0,348.0 338.0,148.0 138.0,148.0" fill="#dbeafe" stroke="#2563eb" stroke-width="1.5" fill-opacity="1"/>
<circle cx="168.0" cy="278.0" r="120.0" fill="none" stroke="#9ca3af" stroke-width="1.2"/>
<path d="M 279.4 322.6 A 120.0 120.0 0 0 0 212.6 166.6" fill="none" stroke="#ea580c" stroke-width="5" stroke-linecap="round"/>
<line x1="168.0" y1="278.0" x2="443.7" y2="159.8" stroke="#1f2937" stroke-width="1" stroke-dasharray="2 3" marker-end="url(#arrow)"/>
<circle cx="168.0" cy="278.0" r="3.2" fill="#1f2937"/>
<text x="162.0" y="292.0" font-size="15" font-family="Georgia, 'Times New Roman', serif" fill="#1f2937" text-anchor="end" dominant-baseline="middle" font-style="italic">o</text>
<circle cx="238.0" cy="248.0" r="3.2" fill="#2563eb"/>
<text x="418.0" y="68.0" font-size="19" font-family="Georgia, 'Times New Roman', serif" fill="#ea580c" text-anchor="middle" dominant-baseline="middle" font-style="italic">Ŝ</text>
<text x="134.0" y="38.0" font-size="12" font-family="Georgia, 'Times New Roman', serif" fill="#1f2937" text-anchor="end" dominant-baseline="middle">X = a<tspan dy="3.6" font-size="8.2">S</tspan><tspan dy="-3.6"> − ½</tspan></text>
<text x="478.0" y="360.0" font-size="12" font-family="Georgia, 'Times New Roman', serif" fill="#1f2937" text-anchor="end" dominant-baseline="middle">Y = b<tspan dy="3.6" font-size="8.2">S</tspan><tspan dy="-3.6"> − ½</tspan></text>
</svg>
